<svg xmlns="http://www.w3.org/2000/svg" xmlns:xlink="http://www.w3.org/1999/xlink" width="91.596" height="47.445" viewBox="0 0 91.596 47.445">
  <defs>
    <linearGradient id="linear-gradient" x1="0.5" y1="1" x2="0.5" gradientUnits="objectBoundingBox">
      <stop offset="0" stop-color="#bec800"/>
      <stop offset="0.132" stop-color="#b0c30c"/>
      <stop offset="0.289" stop-color="#a4bf18"/>
      <stop offset="0.5" stop-color="#97ba1e"/>
      <stop offset="0.711" stop-color="#87b528"/>
      <stop offset="1" stop-color="#88b527"/>
    </linearGradient>
  </defs>
  <g id="组_2382" data-name="组 2382" transform="translate(-41.56 -257.561)">
    <g id="组_2284" data-name="组 2284" transform="translate(74.469 275.083)">
      <g id="组_2282" data-name="组 2282" transform="translate(0 0)">
        <path id="路径_1" data-name="路径 1" d="M99.082,291.352a2.908,2.908,0,0,0-.665.411c-1.27,1.372-2.522,2.759-3.773,4.147s-2.494,2.784-3.744,4.173c-.528.587-1.065,1.168-1.6,1.75-.1.113-.2.279-.329.312a7.376,7.376,0,0,1-2.644.059l-.089-.184,9.454-10.5a1.855,1.855,0,0,0-.423-.127c-.944-.008-1.89-.017-2.834.006a.855.855,0,0,0-.558.231q-2.88,3.161-5.732,6.35c-1.16,1.289-2.3,2.592-3.5,3.848a1.711,1.711,0,0,1-1,.423,18.358,18.358,0,0,1-1.919.019l-.108-.267,9.467-10.527a3.779,3.779,0,0,0-.519-.088c-.944-.006-1.892-.038-2.833.018a1.421,1.421,0,0,0-.869.436c-2.086,2.269-4.145,4.564-6.217,6.846a5.244,5.244,0,0,1-.458.4l-.183-.063c.056-.476.1-.954.17-1.428a6.2,6.2,0,0,1,.237-1.246,4.266,4.266,0,0,1,.7-1.347c1.793-2.041,3.639-4.034,5.441-6.067a1.738,1.738,0,0,1,1.613-.683c.3.038.619-.014.925.015a3.076,3.076,0,0,1,.577.167,2.382,2.382,0,0,1-.254.541c-.375.46-.777.9-1.259,1.445.331.018.548.041.766.041,3.894,0,7.79.009,11.684-.014a2.093,2.093,0,0,0,.968-.341,4.191,4.191,0,0,1,2.483-.071.6.6,0,0,1,.2.479c-.192,1.254-.414,2.5-.631,3.755q-.528,3.046-1.061,6.09a9.931,9.931,0,0,1-.273,1.414.779.779,0,0,1-.539.467c-1.406.04-2.815.034-4.221.005-.163,0-.322-.237-.483-.363.149-.171.278-.461.451-.489a6.865,6.865,0,0,1,1.383-.038c.428.016.661-.093.739-.58.273-1.711.592-3.415.9-5.121.192-1.061.4-2.119.6-3.18.058-.318.086-.642.127-.963Z" transform="translate(-78.006 -278.06)" fill="#4d5b71"/>
        <path id="路径_2" data-name="路径 2" d="M85.549,276.966c.5.144,1,.3,1.507.424a2.327,2.327,0,0,0,.572.051q6.332.005,12.664-.007c.309,0,.613-.2.926-.223.8-.055,1.6-.078,2.405-.067.082,0,.248.336.225.492-.2,1.293-.43,2.582-.656,3.87q-.408,2.332-.822,4.662c-.04.228-.092.453-.137.68a.633.633,0,0,1-.74.561c-.481-.019-.963,0-1.446-.008-.15,0-.367,0-.438-.088-.381-.477-.9-.362-1.386-.363-4.029,0-8.058-.011-12.086.012a4.915,4.915,0,0,0-1.181.311,2.234,2.234,0,0,1-.495.125c-.52.016-1.041,0-1.561.007-.441.007-.587-.216-.517-.623.214-1.253.422-2.507.645-3.758.27-1.517.569-3.029.824-4.547C84.085,277.092,84.066,277.089,85.549,276.966Zm7.637,4.767c2.14,0,4.281-.014,6.421.009.5.005.762-.168.842-.649.1-.628.232-1.252.315-1.882.108-.824.09-.834-.758-.834q-6.276,0-12.553,0a.994.994,0,0,0-.4.017c-.151.073-.355.2-.386.332-.184.787-.325,1.584-.479,2.378-.091.472.081.644.579.638C88.905,281.72,91.046,281.733,93.186,281.733Zm-.728,4.284c2.157,0,4.313-.007,6.471.006.436,0,.665-.114.728-.592.088-.684.271-1.357.388-2.038.1-.588-.026-.734-.618-.739-1.1-.008-2.2,0-3.293,0-3.178,0-6.355.008-9.533-.007-.49,0-.752.142-.813.655-.079.667-.222,1.326-.31,1.993-.093.705-.07.723.624.724Q89.281,286.02,92.459,286.016Z" transform="translate(-78.429 -276.966)" fill="#4d5b71"/>
      </g>
      <g id="组_2283" data-name="组 2283" transform="translate(26.733 0)">
        <path id="路径_3" data-name="路径 3" d="M140.769,281.753a1.283,1.283,0,0,0-.6-.037c-4.023,0-.312,0-4.334,0-.251,0-.5-.041-.832-.07a4.812,4.812,0,0,1,.218-.493c.627-1.01,1.263-2.012,1.883-3.029.1-.17.236-.508.183-.59a.7.7,0,0,0-.508-.283,5.712,5.712,0,0,0-1.58.014,1.743,1.743,0,0,0-1.013.659c-.67.962-1.268,2-1.879,3.029a1.338,1.338,0,0,1-1.242.777c-2.011-.032-4.022-.014-6.033-.012-.393,0-.851-.027-.861.662-.01.713.475.571.817.572,1.707.013,3.413,0,5.119.009.233,0,5.708,0,9.995-.005a1.5,1.5,0,0,0,.72-.07.827.827,0,0,0,.352-.6A.816.816,0,0,0,140.769,281.753Z" transform="translate(-109.219 -276.989)" fill="#4d5b71"/>
        <path id="路径_4" data-name="路径 4" d="M126.368,286.7c-.345,0-.746-.021-.754.524-.009.564.415.451.716.452,1.5.01,2.992,0,4.489.007l6.535,0a1.449,1.449,0,0,0,.631-.056.646.646,0,0,0,.309-.473c0-.15-.2-.345-.354-.42a1.236,1.236,0,0,0-.528-.03c-3.526,0,3.127,0-.4,0Z" transform="translate(-109.359 -277.909)" fill="#4d5b71"/>
        <path id="路径_5" data-name="路径 5" d="M125.928,290.607c-.344,0-.746-.022-.754.523-.009.564.416.451.717.453,1.5.01,2.992,0,4.488.006.2,0,2.777,0,6.535,0a1.462,1.462,0,0,0,.631-.056.649.649,0,0,0,.309-.474c0-.149-.2-.345-.354-.42a1.245,1.245,0,0,0-.527-.03c-3.526,0,3.126,0-.4,0C136.352,290.6,127.691,290.606,125.928,290.607Z" transform="translate(-109.316 -278.289)" fill="#4d5b71"/>
        <path id="路径_6" data-name="路径 6" d="M121.226,280.48a3.382,3.382,0,0,1,.218-.39c.627-.8,1.263-1.591,1.883-2.4.1-.134.236-.4.183-.466A.764.764,0,0,0,123,277a7.216,7.216,0,0,0-1.58.012,1.835,1.835,0,0,0-1.013.521c-.67.76-1.268,1.585-1.879,2.4-.289.384-1.622,2-1.716,2.121q-3.886,4.927-7.767,9.857a4.458,4.458,0,0,0-.836,1.386,21.921,21.921,0,0,0-.526,2.684,10.858,10.858,0,0,0-.071,1.166l.229.109q3-3.778,6-7.556l.111.061q-.4,2.3-.8,4.593-.589,3.355-1.184,6.709c-.079.442.111.676.536.691.589.021,1.178.015,1.767,0,.44-.012.627-.276.684-.7.093-.7.225-1.4.348-2.1q.558-3.176,1.124-6.35c.212-1.177.423-2.356.683-3.523.042-.19,1.27-2.31-1.056-2.053.167-.261.25-.417.358-.554,1.117-1.42,2.261-2.821,3.347-4.265" transform="translate(-107.612 -276.966)" fill="#4d5b71"/>
        <path id="路径_7" data-name="路径 7" d="M136.548,294.51c-.727-.01-1.456.01-2.182.06-.284.02-.56.2-.84.2-3.828.014-3.41.009-7.237.006a2.109,2.109,0,0,1-.518-.046c-.459-.116-.911-.255-1.366-.384-1.344.11-1.327.113-1.538,1.368-.231,1.378-.5,2.748-.748,4.123-.2,1.135-.391,2.272-.584,3.408-.063.369.07.572.469.565.472-.007.944.008,1.416-.007a2.016,2.016,0,0,0,.449-.112,4.421,4.421,0,0,1,1.071-.282c3.652-.022,3.059-.014,6.713-.011.442,0,.911-.1,1.256.33.065.081.262.076.4.079.436.009.874-.01,1.31.007a.575.575,0,0,0,.672-.507c.041-.206.088-.411.125-.617q.374-2.113.745-4.228c.2-1.168.414-2.336.593-3.509C136.774,294.814,136.623,294.511,136.548,294.51Zm-2.593,1.875c-.076.571-.191,1.137-.285,1.7-.073.437-.275,1.553-.367,2.086-.107.618-.272,1.227-.352,1.848-.056.433-.265.539-.66.536-1.956-.012.335-.005-1.621-.005q-2.881,0-5.763,0c-.629,0-.649-.017-.565-.656.079-.6.209-1.2.281-1.807.055-.465.277-1.56.36-1.988.14-.72.267-1.443.434-2.156.029-.124.214-.235.351-.3a.89.89,0,0,1,.362-.016h7.136C134.036,295.628,134.053,295.637,133.955,296.384Z" transform="translate(-108.962 -278.653)" fill="#4d5b71"/>
      </g>
    </g>
    <g id="组_2285" data-name="组 2285" transform="translate(41.56 257.561)">
      <path id="路径_8" data-name="路径 8" d="M42.316,304.05c12.35-44.736,47.842-50.239,71.706-43.148-45.046,2.835-46.96,24.154-52.5,43.148Z" transform="translate(-41.634 -257.635)" fill="url(#linear-gradient)"/>
      <path id="路径_9" data-name="路径 9" d="M61.447,304.657h-19.2a.683.683,0,0,1-.658-.864c5.178-18.755,14.7-32.089,28.3-39.632,12.789-7.092,28.921-8.545,44.258-3.988a.683.683,0,0,1-.152,1.335c-40.9,2.575-45.821,20.574-50.581,37.98-.421,1.538-.856,3.129-1.307,4.677A.682.682,0,0,1,61.447,304.657Zm-18.3-1.364H60.934c.4-1.383.785-2.795,1.159-4.164,4.725-17.276,9.606-35.121,47.768-38.668-13.788-3.148-27.919-1.424-39.315,4.895C57.488,272.6,48.271,285.358,43.143,303.292Z" transform="translate(-41.56 -257.561)" fill="#fff"/>
    </g>
    <g id="组_2286" data-name="组 2286" transform="translate(92.242 261.334)">
      <path id="路径_10" data-name="路径 10" d="M132.541,271.87c-9.112-11.793-21.438-11.1-34.348-6.65,17.953-2.35,20.481,3.727,22.587,6.65S132.541,271.87,132.541,271.87Z" transform="translate(-97.738 -261.788)" fill="#4d5b71"/>
      <path id="路径_11" data-name="路径 11" d="M113.306,262.194c7.167,0,13.749,2.591,19.186,9.627a32.365,32.365,0,0,1-7.775,1.3c-1.743,0-3.283-.324-3.986-1.3-1.777-2.466-3.853-7.179-15.246-7.179a56.913,56.913,0,0,0-7.34.528,47.33,47.33,0,0,1,15.162-2.977m0-.455a47.473,47.473,0,0,0-15.31,3,.455.455,0,0,0,.147.885.439.439,0,0,0,.06,0,56.863,56.863,0,0,1,7.281-.525h0c10.138,0,12.691,3.774,14.381,6.272.172.254.335.495.495.717.712.988,2.177,1.488,4.355,1.488a32.386,32.386,0,0,0,7.907-1.318.455.455,0,0,0,.228-.713c-5.1-6.6-11.491-9.8-19.546-9.8Z" transform="translate(-97.689 -261.739)" fill="#fff"/>
    </g>
    <g id="组_2288" data-name="组 2288" transform="translate(74.625 300.723)">
      <g id="组_2287" data-name="组 2287" transform="translate(0)">
        <path id="路径_12" data-name="路径 12" d="M81.12,305.362l-.06.27H79.149l-.256,1.2h1.785l-.061.27H78.836l-.28,1.315h1.958l-.061.27H78.179l.709-3.327Z" transform="translate(-78.179 -305.362)" fill="#4d5b71"/>
        <path id="路径_13" data-name="路径 13" d="M82.57,306.376l-.084.438h.009a1.178,1.178,0,0,1,.361-.361.9.9,0,0,1,.5-.147,1.1,1.1,0,0,1,.292.037.656.656,0,0,1,.23.115.514.514,0,0,1,.152.2.751.751,0,0,1,.053.3,1.606,1.606,0,0,1-.037.284l-.331,1.543h-.293l.336-1.552c.009-.037.017-.077.023-.118a.831.831,0,0,0,.009-.124.436.436,0,0,0-.042-.2.378.378,0,0,0-.112-.134.477.477,0,0,0-.161-.074.766.766,0,0,0-.189-.023.725.725,0,0,0-.308.07.955.955,0,0,0-.274.2,1.268,1.268,0,0,0-.219.312,1.633,1.633,0,0,0-.14.413l-.265,1.235h-.289l.513-2.4Z" transform="translate(-78.529 -305.454)" fill="#4d5b71"/>
        <path id="路径_14" data-name="路径 14" d="M87.206,309.07a1.2,1.2,0,0,1-.233.375.876.876,0,0,1-.339.219,1.4,1.4,0,0,1-.478.072,1.423,1.423,0,0,1-.351-.042.855.855,0,0,1-.292-.134.65.65,0,0,1-.2-.239.862.862,0,0,1-.079-.364h.29a.515.515,0,0,0,.058.256.472.472,0,0,0,.152.163.645.645,0,0,0,.214.086,1.211,1.211,0,0,0,.252.025.78.78,0,0,0,.321-.06.755.755,0,0,0,.231-.158.912.912,0,0,0,.158-.226,2.021,2.021,0,0,0,.1-.259c.028-.087.051-.173.07-.259s.037-.162.055-.23l-.009-.009a.805.805,0,0,1-.349.329,1.044,1.044,0,0,1-.47.114.93.93,0,0,1-.382-.074.773.773,0,0,1-.28-.208.906.906,0,0,1-.17-.31,1.21,1.21,0,0,1-.059-.387,1.685,1.685,0,0,1,.084-.524,1.525,1.525,0,0,1,.242-.464,1.23,1.23,0,0,1,.387-.33,1.05,1.05,0,0,1,.517-.126,1.022,1.022,0,0,1,.265.035.855.855,0,0,1,.24.1.658.658,0,0,1,.183.177.6.6,0,0,1,.1.247h.009l.1-.494h.271l-.457,2.153A3.117,3.117,0,0,1,87.206,309.07Zm-1.455-1.053a.692.692,0,0,0,.119.239.581.581,0,0,0,.2.165.641.641,0,0,0,.29.061.744.744,0,0,0,.4-.11,1.044,1.044,0,0,0,.3-.284,1.308,1.308,0,0,0,.191-.386,1.4,1.4,0,0,0,.066-.412,1.164,1.164,0,0,0-.035-.294.6.6,0,0,0-.115-.233.536.536,0,0,0-.2-.154.727.727,0,0,0-.3-.056.761.761,0,0,0-.4.107,1.012,1.012,0,0,0-.3.277,1.248,1.248,0,0,0-.186.377,1.4,1.4,0,0,0-.063.413A1.106,1.106,0,0,0,85.751,308.017Z" transform="translate(-78.864 -305.454)" fill="#4d5b71"/>
        <path id="路径_15" data-name="路径 15" d="M89.679,306.285l-.517,2.4h-.289l.513-2.4Zm.2-.923-.1.47h-.293l.1-.47Z" transform="translate(-79.217 -305.362)" fill="#4d5b71"/>
        <path id="路径_16" data-name="路径 16" d="M91.334,306.376l-.084.438h.009a1.178,1.178,0,0,1,.361-.361.9.9,0,0,1,.5-.147,1.091,1.091,0,0,1,.291.037.661.661,0,0,1,.231.115.5.5,0,0,1,.151.2.735.735,0,0,1,.054.3,1.541,1.541,0,0,1-.038.284l-.33,1.543h-.293l.336-1.552a1.1,1.1,0,0,0,.023-.118.834.834,0,0,0,.01-.124.436.436,0,0,0-.042-.2.369.369,0,0,0-.112-.134.469.469,0,0,0-.161-.074.761.761,0,0,0-.189-.023.721.721,0,0,0-.307.07.971.971,0,0,0-.275.2,1.243,1.243,0,0,0-.219.312,1.633,1.633,0,0,0-.14.413l-.265,1.235h-.289l.512-2.4Z" transform="translate(-79.38 -305.454)" fill="#4d5b71"/>
        <path id="路径_17" data-name="路径 17" d="M94.461,307.845a1.046,1.046,0,0,0,.042.3.647.647,0,0,0,.128.24.6.6,0,0,0,.219.158.838.838,0,0,0,.809-.107.882.882,0,0,0,.289-.431h.293a1.2,1.2,0,0,1-.392.625,1.1,1.1,0,0,1-.7.214.946.946,0,0,1-.73-.27,1.059,1.059,0,0,1-.249-.746,1.843,1.843,0,0,1,.087-.562,1.516,1.516,0,0,1,.254-.487,1.293,1.293,0,0,1,.41-.345,1.136,1.136,0,0,1,.55-.131,1.03,1.03,0,0,1,.387.068.814.814,0,0,1,.286.191.8.8,0,0,1,.18.3,1.161,1.161,0,0,1,.06.382c0,.069,0,.136,0,.2s-.01.138-.019.209H94.476A1.076,1.076,0,0,0,94.461,307.845Zm1.624-.529c0-.03,0-.06,0-.091a.676.676,0,0,0-.174-.489.638.638,0,0,0-.482-.182.769.769,0,0,0-.333.072.962.962,0,0,0-.27.191,1.1,1.1,0,0,0-.2.274,1.363,1.363,0,0,0-.116.321h1.571C96.084,307.376,96.084,307.345,96.086,307.316Z" transform="translate(-79.731 -305.454)" fill="#4d5b71"/>
        <path id="路径_18" data-name="路径 18" d="M97.862,307.845a1.046,1.046,0,0,0,.042.3.647.647,0,0,0,.128.24.6.6,0,0,0,.219.158.838.838,0,0,0,.809-.107.882.882,0,0,0,.289-.431h.293a1.209,1.209,0,0,1-.391.625,1.1,1.1,0,0,1-.7.214.946.946,0,0,1-.73-.27,1.059,1.059,0,0,1-.249-.746,1.843,1.843,0,0,1,.087-.562,1.516,1.516,0,0,1,.254-.487,1.293,1.293,0,0,1,.41-.345,1.136,1.136,0,0,1,.55-.131,1.03,1.03,0,0,1,.387.068.814.814,0,0,1,.286.191.8.8,0,0,1,.18.3,1.161,1.161,0,0,1,.061.382c0,.069,0,.136,0,.2s-.01.138-.019.209H97.877A1.174,1.174,0,0,0,97.862,307.845Zm1.624-.529c0-.03,0-.06,0-.091a.677.677,0,0,0-.175-.489.638.638,0,0,0-.482-.182.769.769,0,0,0-.333.072.962.962,0,0,0-.27.191,1.1,1.1,0,0,0-.2.274,1.364,1.364,0,0,0-.116.321h1.571C99.485,307.376,99.485,307.345,99.487,307.316Z" transform="translate(-80.061 -305.454)" fill="#4d5b71"/>
        <path id="路径_19" data-name="路径 19" d="M101.624,306.38l-.121.554h.009a1.361,1.361,0,0,1,.345-.424.824.824,0,0,1,.527-.163h.121a.131.131,0,0,1,.037.005l-.065.293-.084,0-.084,0a.834.834,0,0,0-.348.079.886.886,0,0,0-.263.2,1.07,1.07,0,0,0-.184.282,1.627,1.627,0,0,0-.109.326l-.271,1.259h-.289l.513-2.4Z" transform="translate(-80.379 -305.458)" fill="#4d5b71"/>
        <path id="路径_20" data-name="路径 20" d="M109.712,305.362a.919.919,0,0,1,.651.209.805.805,0,0,1,.226.62.922.922,0,0,1-.064.342.885.885,0,0,1-.176.282.894.894,0,0,1-.27.2.962.962,0,0,1-.339.089v.009a.479.479,0,0,1,.331.209.75.75,0,0,1,.093.387,2.631,2.631,0,0,1-.023.349,2.6,2.6,0,0,0-.023.345,1.443,1.443,0,0,0,.01.149.3.3,0,0,0,.046.14h-.326a.1.1,0,0,1-.023-.059.876.876,0,0,1-.014-.107c0-.039-.005-.076-.007-.11s0-.056,0-.065a1.949,1.949,0,0,1,.023-.3,1.949,1.949,0,0,0,.023-.3.69.69,0,0,0-.1-.389.4.4,0,0,0-.357-.152h-1.174l-.312,1.477h-.317l.708-3.327Zm-.307,1.58a1.222,1.222,0,0,0,.338-.045.808.808,0,0,0,.275-.135.649.649,0,0,0,.186-.227.709.709,0,0,0,.068-.321.635.635,0,0,0-.131-.438.569.569,0,0,0-.438-.144h-1.141l-.28,1.31Z" transform="translate(-81.033 -305.362)" fill="#4d5b71"/>
        <path id="路径_21" data-name="路径 21" d="M111.993,307.845a1.046,1.046,0,0,0,.042.3.647.647,0,0,0,.128.24.6.6,0,0,0,.219.158.838.838,0,0,0,.809-.107.882.882,0,0,0,.289-.431h.293a1.2,1.2,0,0,1-.392.625,1.1,1.1,0,0,1-.7.214.946.946,0,0,1-.73-.27,1.059,1.059,0,0,1-.249-.746,1.843,1.843,0,0,1,.087-.562,1.516,1.516,0,0,1,.254-.487,1.293,1.293,0,0,1,.41-.345,1.136,1.136,0,0,1,.55-.131,1.03,1.03,0,0,1,.387.068.814.814,0,0,1,.286.191.8.8,0,0,1,.18.3,1.161,1.161,0,0,1,.061.382c0,.069,0,.136,0,.2s-.01.138-.019.209h-1.883A1.076,1.076,0,0,0,111.993,307.845Zm1.624-.529c0-.03,0-.06,0-.091a.676.676,0,0,0-.174-.489.638.638,0,0,0-.482-.182.769.769,0,0,0-.333.072.979.979,0,0,0-.271.191,1.116,1.116,0,0,0-.2.274,1.364,1.364,0,0,0-.116.321h1.571C113.616,307.376,113.616,307.345,113.618,307.316Z" transform="translate(-81.432 -305.454)" fill="#4d5b71"/>
        <path id="路径_22" data-name="路径 22" d="M115.377,308.292a.5.5,0,0,0,.153.186.581.581,0,0,0,.219.1,1.167,1.167,0,0,0,.249.028.874.874,0,0,0,.2-.026.662.662,0,0,0,.2-.079.465.465,0,0,0,.147-.137.341.341,0,0,0,.058-.2.327.327,0,0,0-.058-.2.548.548,0,0,0-.149-.138,1.088,1.088,0,0,0-.208-.1l-.233-.091q-.116-.046-.233-.1a.94.94,0,0,1-.208-.13.609.609,0,0,1-.146-.182.535.535,0,0,1-.056-.254.522.522,0,0,1,.084-.3.685.685,0,0,1,.214-.2,1,1,0,0,1,.289-.117,1.36,1.36,0,0,1,.653.005.728.728,0,0,1,.273.135.629.629,0,0,1,.177.24.853.853,0,0,1,.058.357h-.293a.511.511,0,0,0-.033-.237.443.443,0,0,0-.119-.163.47.47,0,0,0-.184-.095.812.812,0,0,0-.228-.031,1.23,1.23,0,0,0-.2.018.7.7,0,0,0-.191.063.408.408,0,0,0-.145.124.338.338,0,0,0-.058.2.268.268,0,0,0,.042.149.455.455,0,0,0,.112.116.939.939,0,0,0,.161.093c.061.028.126.056.194.084l.263.106a1.194,1.194,0,0,1,.252.133.734.734,0,0,1,.191.191.482.482,0,0,1,.078.28.646.646,0,0,1-.087.345.683.683,0,0,1-.226.226.992.992,0,0,1-.312.124,1.659,1.659,0,0,1-.345.037,1.267,1.267,0,0,1-.342-.046.806.806,0,0,1-.292-.15.726.726,0,0,1-.2-.263.836.836,0,0,1-.065-.389h.289A.641.641,0,0,0,115.377,308.292Z" transform="translate(-81.755 -305.454)" fill="#4d5b71"/>
        <path id="路径_23" data-name="路径 23" d="M120.032,306.369a.818.818,0,0,1,.5.479,1.084,1.084,0,0,1,.07.4,2.1,2.1,0,0,1-.084.591,1.6,1.6,0,0,1-.249.513,1.253,1.253,0,0,1-.414.359,1.217,1.217,0,0,1-.585.135.917.917,0,0,1-.712-.27,1.034,1.034,0,0,1-.247-.727,1.9,1.9,0,0,1,.088-.573,1.5,1.5,0,0,1,.261-.494,1.317,1.317,0,0,1,.422-.345,1.206,1.206,0,0,1,.571-.131A1.137,1.137,0,0,1,120.032,306.369Zm-.284,2.111a1.068,1.068,0,0,0,.308-.315,1.475,1.475,0,0,0,.186-.419,1.624,1.624,0,0,0,.063-.438.815.815,0,0,0-.177-.545.656.656,0,0,0-.531-.21.777.777,0,0,0-.429.119,1.061,1.061,0,0,0-.312.3,1.446,1.446,0,0,0-.191.41,1.577,1.577,0,0,0-.065.436.865.865,0,0,0,.177.566.663.663,0,0,0,.545.217A.748.748,0,0,0,119.748,308.48Z" transform="translate(-82.073 -305.454)" fill="#4d5b71"/>
        <path id="路径_24" data-name="路径 24" d="M123.439,308.789l.084-.438h-.009a1.16,1.16,0,0,1-.361.358.9.9,0,0,1-.5.144,1.129,1.129,0,0,1-.291-.035.613.613,0,0,1-.231-.112.492.492,0,0,1-.151-.2.731.731,0,0,1-.054-.3,1.623,1.623,0,0,1,.037-.284l.331-1.542h.293l-.336,1.552a1.061,1.061,0,0,0-.023.118.826.826,0,0,0-.01.124.444.444,0,0,0,.042.2.364.364,0,0,0,.112.135.447.447,0,0,0,.161.075.761.761,0,0,0,.189.023.71.71,0,0,0,.31-.07.915.915,0,0,0,.27-.2,1.292,1.292,0,0,0,.217-.312,1.762,1.762,0,0,0,.144-.413l.265-1.234h.294l-.517,2.4Z" transform="translate(-82.425 -305.461)" fill="#4d5b71"/>
        <path id="路径_25" data-name="路径 25" d="M126.046,306.38l-.121.554h.009a1.36,1.36,0,0,1,.345-.424.824.824,0,0,1,.527-.163h.121a.135.135,0,0,1,.037.005l-.065.293-.084,0-.084,0a.83.83,0,0,0-.348.079.874.874,0,0,0-.263.2,1.07,1.07,0,0,0-.184.282,1.628,1.628,0,0,0-.109.326l-.271,1.259h-.289l.513-2.4Z" transform="translate(-82.749 -305.458)" fill="#4d5b71"/>
        <path id="路径_26" data-name="路径 26" d="M129.619,306.884a.478.478,0,0,0-.119-.179.524.524,0,0,0-.187-.112.679.679,0,0,0-.239-.04.873.873,0,0,0-.46.117,1.065,1.065,0,0,0-.323.3,1.335,1.335,0,0,0-.194.42,1.8,1.8,0,0,0-.062.466,1.044,1.044,0,0,0,.04.3.64.64,0,0,0,.123.237.576.576,0,0,0,.209.156.739.739,0,0,0,.3.056.749.749,0,0,0,.5-.168.964.964,0,0,0,.3-.433h.293a1.246,1.246,0,0,1-.41.631,1.132,1.132,0,0,1-.712.212.873.873,0,0,1-.688-.27,1.043,1.043,0,0,1-.239-.718,1.824,1.824,0,0,1,.088-.559,1.623,1.623,0,0,1,.256-.5,1.354,1.354,0,0,1,.411-.356,1.086,1.086,0,0,1,.55-.138,1.265,1.265,0,0,1,.363.05.781.781,0,0,1,.289.151.686.686,0,0,1,.187.256.886.886,0,0,1,.061.363h-.293A.581.581,0,0,0,129.619,306.884Z" transform="translate(-82.989 -305.454)" fill="#4d5b71"/>
        <path id="路径_27" data-name="路径 27" d="M131.435,307.845a1.046,1.046,0,0,0,.042.3.647.647,0,0,0,.128.24.607.607,0,0,0,.219.158.837.837,0,0,0,.808-.107.876.876,0,0,0,.289-.431h.293a1.2,1.2,0,0,1-.391.625,1.1,1.1,0,0,1-.7.214.944.944,0,0,1-.729-.27,1.059,1.059,0,0,1-.249-.746,1.842,1.842,0,0,1,.086-.562,1.552,1.552,0,0,1,.254-.487,1.3,1.3,0,0,1,.41-.345,1.136,1.136,0,0,1,.55-.131,1.03,1.03,0,0,1,.387.068.8.8,0,0,1,.466.488,1.137,1.137,0,0,1,.061.382c0,.069,0,.136,0,.2s-.009.138-.019.209h-1.883A1.178,1.178,0,0,0,131.435,307.845Zm1.624-.529c0-.03,0-.06,0-.091a.677.677,0,0,0-.175-.489.638.638,0,0,0-.482-.182.769.769,0,0,0-.333.072.975.975,0,0,0-.27.191,1.1,1.1,0,0,0-.2.274,1.363,1.363,0,0,0-.116.321h1.571C133.057,307.376,133.058,307.345,133.059,307.316Z" transform="translate(-83.319 -305.454)" fill="#4d5b71"/>
        <path id="路径_28" data-name="路径 28" d="M134.818,308.292a.505.505,0,0,0,.154.186.585.585,0,0,0,.219.1,1.16,1.16,0,0,0,.249.028.88.88,0,0,0,.2-.026.682.682,0,0,0,.2-.079.472.472,0,0,0,.146-.137.341.341,0,0,0,.059-.2.327.327,0,0,0-.059-.2.548.548,0,0,0-.149-.138,1.087,1.087,0,0,0-.208-.1l-.232-.091c-.079-.031-.156-.064-.234-.1a.934.934,0,0,1-.207-.13.6.6,0,0,1-.147-.182.535.535,0,0,1-.056-.254.521.521,0,0,1,.084-.3.685.685,0,0,1,.214-.2.993.993,0,0,1,.29-.117,1.339,1.339,0,0,1,.3-.037,1.361,1.361,0,0,1,.349.042.721.721,0,0,1,.273.135.621.621,0,0,1,.177.24.852.852,0,0,1,.059.357h-.293a.523.523,0,0,0-.033-.237.441.441,0,0,0-.118-.163.482.482,0,0,0-.184-.095.816.816,0,0,0-.228-.031,1.24,1.24,0,0,0-.2.018.7.7,0,0,0-.191.063.405.405,0,0,0-.144.124.338.338,0,0,0-.059.2.269.269,0,0,0,.042.149.44.44,0,0,0,.112.116.906.906,0,0,0,.161.093c.061.028.125.056.193.084l.263.106a1.151,1.151,0,0,1,.252.133.753.753,0,0,1,.191.191.482.482,0,0,1,.077.28.646.646,0,0,1-.087.345.675.675,0,0,1-.226.226.984.984,0,0,1-.312.124,1.651,1.651,0,0,1-.344.037,1.274,1.274,0,0,1-.343-.046.8.8,0,0,1-.291-.15.725.725,0,0,1-.2-.263.836.836,0,0,1-.066-.389h.289A.653.653,0,0,0,134.818,308.292Z" transform="translate(-83.641 -305.454)" fill="#4d5b71"/>
      </g>
    </g>
  </g>
</svg>
