<?xml version="1.0" standalone="no"?><!DOCTYPE svg PUBLIC "-//W3C//DTD SVG 1.1//EN" "http://www.w3.org/Graphics/SVG/1.1/DTD/svg11.dtd"><svg t="1603166161667" class="icon" viewBox="0 0 1024 1024" version="1.1" xmlns="http://www.w3.org/2000/svg" p-id="13551" xmlns:xlink="http://www.w3.org/1999/xlink" width="48" height="48"><defs><style type="text/css"></style></defs><path d="M816.64 1017.856h-614.4c-27.648 0-50.176-22.528-50.176-50.176V56.32c0-27.648 22.528-50.176 50.176-50.176h614.4c27.648 0 50.176 22.528 50.176 50.176v911.36c0 27.648-22.528 50.176-50.176 50.176z m-614.4-962.56c-0.512 0-1.024 0.512-1.024 1.024v911.36c0 0.512 0.512 1.024 1.024 1.024h614.4c0.512 0 1.024-0.512 1.024-1.024V56.32c0-0.512-0.512-1.024-1.024-1.024h-614.4z" fill="#EA6911" p-id="13552"></path><path d="M760.32 882.176h-501.76c-3.072 0-5.12-2.048-5.12-5.12V146.944c0-3.072 2.048-5.12 5.12-5.12h501.76c3.072 0 5.12 2.048 5.12 5.12v730.112c0 3.072-2.048 5.12-5.12 5.12z" fill="#DCDDDD" p-id="13553"></path><path d="M310.38976 329.2416l138.65984-138.65984 18.0992 18.10432L328.48896 347.3408zM313.00608 447.94368L510.3104 250.63424l18.0992 18.10432L331.1104 466.04288zM422.912 83.456h178.176v25.6H422.912zM460.8 894.976h102.4v51.2H460.8z" fill="#EA6911" p-id="13554"></path></svg>